<?xml version="1.0" standalone="no"?>
<!DOCTYPE svg PUBLIC "-//W3C//DTD SVG 20010904//EN"
 "http://www.w3.org/TR/2001/REC-SVG-20010904/DTD/svg10.dtd">
<svg version="1.0" xmlns="http://www.w3.org/2000/svg"
 width="260.000000pt" height="260.000000pt" viewBox="0 0 260.000000 260.000000"
 preserveAspectRatio="xMidYMid meet">
<metadata>
Created by potrace 1.11, written by Peter Selinger 2001-2013
</metadata>
<g transform="translate(0.000000,260.000000) scale(0.100000,-0.100000)"
fill="#000000" stroke="none">
<path d="M0 1300 l0 -1300 1300 0 1300 0 0 1300 0 1300 -1300 0 -1300 0 0
-1300z m1532 582 c11 -11 2 -62 -39 -238 -4 -19 3 -23 65 -37 98 -22 159 -54
213 -109 57 -58 79 -117 79 -213 0 -134 -64 -261 -170 -340 -78 -57 -153 -84
-267 -98 l-91 -10 -7 -36 c-3 -20 -11 -53 -16 -73 l-10 -38 -104 0 c-119 0
-114 -6 -91 92 l14 57 -36 6 c-145 22 -209 53 -262 126 -46 64 -64 137 -57
237 12 196 145 328 385 383 150 35 134 21 159 138 13 58 21 107 18 110 -3 2
-40 -1 -82 -7 -145 -23 -200 -69 -190 -159 4 -42 4 -43 -25 -43 -40 0 -94 24
-107 48 -46 85 36 170 200 207 79 18 402 16 421 -3z"/>
<path d="M1166 1515 c-84 -34 -126 -72 -165 -149 -32 -62 -35 -74 -39 -179 -3
-107 -2 -114 25 -167 29 -57 79 -100 117 -100 19 0 26 22 84 298 34 163 62
303 62 310 0 17 -17 15 -84 -13z"/>
<path d="M1470 1533 c0 -8 -120 -572 -126 -595 -4 -15 1 -18 32 -18 121 0 249
152 273 324 15 106 -7 194 -61 242 -41 38 -118 69 -118 47z"/>
</g>
</svg>
